<?xml version="1.0" encoding="UTF-8" standalone="no"?>
<!-- Created with Inkscape (http://www.inkscape.org/) -->

<svg
   width="75.566772mm"
   height="73.872047mm"
   viewBox="0 0 75.566772 73.872047"
   version="1.1"
   id="svg1"
   xml:space="preserve"
   inkscape:version="1.4 (e7c3feb1, 2024-10-09)"
   sodipodi:docname="dialecte-logo_reversed.svg"
   inkscape:export-filename="dialecte-logo.png"
   inkscape:export-xdpi="215.12065"
   inkscape:export-ydpi="215.12065"
   xmlns:inkscape="http://www.inkscape.org/namespaces/inkscape"
   xmlns:sodipodi="http://sodipodi.sourceforge.net/DTD/sodipodi-0.dtd"
   xmlns="http://www.w3.org/2000/svg"
   xmlns:svg="http://www.w3.org/2000/svg"><sodipodi:namedview
     id="namedview1"
     pagecolor="#ffffff"
     bordercolor="#000000"
     borderopacity="0.25"
     inkscape:showpageshadow="2"
     inkscape:pageopacity="0.0"
     inkscape:pagecheckerboard="0"
     inkscape:deskcolor="#d1d1d1"
     inkscape:document-units="mm"
     inkscape:zoom="1.4195795"
     inkscape:cx="238.4509"
     inkscape:cy="62.342406"
     inkscape:window-width="2560"
     inkscape:window-height="1382"
     inkscape:window-x="1512"
     inkscape:window-y="30"
     inkscape:window-maximized="0"
     inkscape:current-layer="g12"
     showguides="true"><sodipodi:guide
       position="-207.47963,381.01371"
       orientation="0,-1"
       id="guide1"
       inkscape:locked="false" /><sodipodi:guide
       position="-224.68682,332.52905"
       orientation="1,0"
       id="guide2"
       inkscape:locked="false" /><sodipodi:guide
       position="-187.40271,332.52905"
       orientation="0,-1"
       id="guide3"
       inkscape:locked="false" /></sodipodi:namedview><defs
     id="defs1" /><g
     inkscape:label="Layer 1"
     inkscape:groupmode="layer"
     id="layer1"
     transform="translate(-55.122989,-108.04063)"><g
       id="g3"><g
         id="g4"
         transform="translate(-7.4929492,6.2441243)"><g
           id="g12"><path
             id="path13-5"
             style="-inkscape-font-specification:Metal;fill:#ff7f2a"
             d="M 100.52939 107.65351 L 100.52939 107.65403 C 98.127979 107.66017 96.930122 107.68529 95.250122 108.22247 C 93.570122 108.75966 91.373217 109.8376 87.125037 111.95868 C 83.994527 113.52171 80.735363 115.12675 79.838143 115.54502 C 78.577083 116.13291 76.841502 117.61484 75.265812 119.40008 C 73.690122 121.18532 72.250923 123.27885 71.462943 125.0602 C 71.257663 125.52428 70.825507 127.32192 70.617517 128.80261 C 70.401707 130.33887 69.794772 133.88371 69.265662 136.71685 C 67.997492 143.50745 68.018384 145.75725 69.367464 149.59566 C 70.244824 152.09189 71.359406 153.66372 75.726766 158.50984 C 81.120406 164.49474 83.140361 166.55805 84.58824 167.62091 C 85.72892 168.45826 88.539156 169.65387 90.312956 170.02748 C 90.333446 170.03188 90.787196 170.0757 91.390926 170.0988 C 91.994646 170.1219 92.805201 170.14134 93.761841 170.15564 C 95.675121 170.18424 98.173264 170.19308 100.78932 170.17528 C 105.19349 170.14523 107.60612 170.11697 109.08235 170.03627 C 110.55859 169.9556 111.05983 169.83592 111.7933 169.59133 C 113.67823 168.96277 114.99057 168.34521 116.47673 167.19458 C 117.96288 166.04394 119.62368 164.34322 122.10946 161.57735 C 123.55285 159.97132 125.7017 157.6506 126.89677 156.40558 C 130.86882 152.26749 131.6871 150.69801 132.32073 145.98399 C 132.53712 144.37366 132.65854 143.84653 132.41995 141.88243 C 132.18137 139.91833 131.56822 136.54743 130.29915 129.47389 C 129.43254 124.64352 128.94425 123.35582 126.84406 120.39382 C 125.08579 117.91406 123.88169 116.98247 119.88686 115.02102 C 117.84872 114.0203 114.21825 112.23043 111.81655 111.04245 C 108.25838 109.28241 106.54026 108.42902 105.20145 108.02868 C 103.86263 107.62841 102.83932 107.64751 100.52939 107.65351 z M 106.28511 115.85663 C 107.09115 115.85663 107.82175 115.94519 108.5196 116.31965 C 109.21746 116.69411 109.80291 117.51554 109.89471 118.32366 L 109.88282 118.23788 L 116.39302 155.75549 L 116.37131 155.648 C 116.43431 155.89999 116.46691 156.16235 116.46691 156.42521 C 116.46691 157.24205 116.23238 158.05636 115.79719 158.74755 C 115.34367 159.46784 114.53461 160.11454 113.59371 160.19294 L 113.46503 160.20431 L 110.998 159.98934 L 103.58605 116.8235 L 104.58237 116.32533 C 105.11504 116.05899 105.6345 115.85663 106.28511 115.85663 z M 104.72861 133.0132 C 105.41389 133.0132 105.97746 133.52796 106.174 133.85553 C 106.37054 134.18309 106.42163 134.42701 106.47063 134.67202 C 106.5687 135.16204 106.59 135.66916 106.59 136.32205 C 106.59 136.70155 106.57484 137.03215 106.48044 137.40984 C 106.45517 137.51095 106.38123 137.65138 106.33213 137.77881 L 106.33213 138.28937 L 90.625081 146.02533 L 102.46519 153.28484 L 102.39697 153.25693 C 102.77011 153.47143 103.04819 153.83027 103.15041 154.08582 C 103.28291 154.41708 103.28322 154.6336 103.28322 154.82221 C 103.28322 155.44558 103.11651 155.83479 102.91012 156.33013 C 102.71283 156.80362 102.49078 157.24848 102.24246 157.66235 C 102.11073 157.88189 101.98954 158.0721 101.80114 158.28143 C 101.61275 158.49075 101.37718 158.9062 100.49218 158.9062 C 99.957744 158.9062 99.961387 158.82782 99.810567 158.77752 L 99.64882 158.72481 L 83.340255 148.79312 L 83.300981 148.76573 C 82.434151 148.15894 82.144462 147.111 82.144462 146.19328 C 82.144462 144.85524 82.954464 143.51937 84.140723 142.90046 L 84.156225 142.89012 L 103.9514 133.17495 L 104.047 133.14188 C 104.19779 133.0916 104.19387 133.0132 104.72861 133.0132 z M 114.18798 174.41585 C 113.352 174.74353 112.63553 174.98497 111.83309 175.1605 C 112.63553 174.98497 113.352 174.74353 114.18798 174.41585 z " /></g></g></g></g></svg>
