<?xml version="1.0" encoding="UTF-8" standalone="no"?>
<!-- Created with Inkscape (http://www.inkscape.org/) -->

<svg
   width="75.566772mm"
   height="73.872047mm"
   viewBox="0 0 75.566772 73.872047"
   version="1.1"
   id="svg1"
   xml:space="preserve"
   inkscape:version="1.4 (e7c3feb1, 2024-10-09)"
   sodipodi:docname="dialecte-logo.svg"
   inkscape:export-filename="dialecte-logo.png"
   inkscape:export-xdpi="215.12065"
   inkscape:export-ydpi="215.12065"
   xmlns:inkscape="http://www.inkscape.org/namespaces/inkscape"
   xmlns:sodipodi="http://sodipodi.sourceforge.net/DTD/sodipodi-0.dtd"
   xmlns="http://www.w3.org/2000/svg"
   xmlns:svg="http://www.w3.org/2000/svg"><sodipodi:namedview
     id="namedview1"
     pagecolor="#ffffff"
     bordercolor="#000000"
     borderopacity="0.25"
     inkscape:showpageshadow="2"
     inkscape:pageopacity="0.0"
     inkscape:pagecheckerboard="0"
     inkscape:deskcolor="#d1d1d1"
     inkscape:document-units="mm"
     inkscape:zoom="1.4195795"
     inkscape:cx="157.08878"
     inkscape:cy="109.53948"
     inkscape:window-width="2560"
     inkscape:window-height="1382"
     inkscape:window-x="1512"
     inkscape:window-y="30"
     inkscape:window-maximized="1"
     inkscape:current-layer="g12"
     showguides="true"><sodipodi:guide
       position="-207.47963,381.01371"
       orientation="0,-1"
       id="guide1"
       inkscape:locked="false" /><sodipodi:guide
       position="-224.68682,332.52905"
       orientation="1,0"
       id="guide2"
       inkscape:locked="false" /><sodipodi:guide
       position="-187.40271,332.52905"
       orientation="0,-1"
       id="guide3"
       inkscape:locked="false" /></sodipodi:namedview><defs
     id="defs1" /><g
     inkscape:label="Layer 1"
     inkscape:groupmode="layer"
     id="layer1"
     transform="translate(-55.122989,-108.04063)"><g
       id="g3"><g
         id="g4"
         transform="translate(-7.4929492,6.2441243)"><g
           id="g12"><path
             id="path13"
             style="-inkscape-font-specification:Metal;fill:#ff7f2a"
             d="m 99.340984,101.80804 v 5.2e-4 c -1.65157,0.0491 -3.281922,0.2506 -4.752682,0.60875 -0.71016,0.17293 -1.907947,0.65946 -3.724837,1.47846 -1.81689,0.819 -4.222555,1.96818 -7.224365,3.4494 -5.037949,2.48593 -7.818857,3.90427 -9.771497,5.26583 -1.95265,1.36155 -3.050846,2.66722 -4.636926,4.80436 -2.67635,3.6062 -3.374797,5.34645 -4.357357,10.85773 -0.35812,2.00874 -1.033567,5.78919 -1.500167,8.40001 -0.75615,4.23114 -0.840019,5.19565 -0.702799,8.04912 0.29761,6.18927 2.122544,10.3379 6.655924,15.15825 1.09315,1.16236 3.697065,3.99022 5.775875,6.27351 1.0544,1.15812 2.191923,2.33697 3.187403,3.31246 0.99548,0.9755 1.826951,1.73595 2.355411,2.11305 2.6806,1.91283 6.140641,3.32792 9.566341,3.92018 0.25889,0.0448 0.658311,0.0632 1.288811,0.0858 0.63051,0.0226 1.456564,0.041 2.422074,0.0548 1.931,0.0275 4.419546,0.0368 7.005767,0.0196 5.12391,-0.0339 7.73237,-0.0538 9.6113,-0.28318 1.87892,-0.22943 3.00472,-0.68177 5.01779,-1.51981 2.0258,-0.84334 3.4861,-1.63152 5.35161,-3.23029 1.86551,-1.59877 4.14654,-3.99818 7.93336,-8.12715 2.79826,-3.0511 4.28858,-4.68792 5.24051,-5.88491 0.95194,-1.19699 1.36178,-1.96465 1.94303,-3.1657 2.0331,-4.20106 2.64342,-9.11298 1.76992,-14.11335 -0.22863,-1.30888 -0.46415,-2.68373 -0.52193,-3.03703 -0.52809,-3.22882 -1.04299,-6.18231 -1.47226,-8.47287 -0.42926,-2.29056 -0.75612,-3.87497 -0.96894,-4.53305 -0.63831,-1.97387 -2.58105,-5.30068 -4.14445,-7.14479 -2.44405,-2.88288 -4.31612,-4.27058 -8.38088,-6.21874 -2.10844,-1.01054 -6.02269,-2.90048 -8.69714,-4.19922 -2.68486,-1.30381 -5.51324,-2.584 -6.47454,-2.90784 -1.78359,-0.60085 -3.94036,-0.9419 -6.14071,-1.01182 -0.55009,-0.0175 -1.103126,-0.0181 -1.653646,-0.002 z m 1.188556,5.84564 c 2.30993,-0.006 3.33324,-0.0251 4.67206,0.37517 1.33881,0.40034 3.05694,1.25373 6.61511,3.01377 2.4017,1.18798 6.03216,2.97785 8.0703,3.97857 3.99483,1.96145 5.19893,2.89304 6.9572,5.3728 2.10019,2.962 2.58848,4.24969 3.45509,9.08006 1.26907,7.07354 1.88222,10.44445 2.1208,12.40855 0.23859,1.9641 0.11719,2.49123 -0.0992,4.10156 -0.63363,4.71402 -1.45191,6.28349 -5.42396,10.42158 -1.19507,1.24502 -3.34391,3.56575 -4.7873,5.17178 -2.48578,2.76587 -4.14658,4.46659 -5.63273,5.61723 -1.48616,1.15063 -2.79851,1.76819 -4.68344,2.39675 -0.73347,0.24459 -1.2347,0.36427 -2.71094,0.44494 -1.47623,0.0807 -3.88887,0.10895 -8.29304,0.139 -2.616054,0.0178 -5.114194,0.009 -7.027474,-0.0196 -0.95664,-0.0143 -1.767195,-0.0337 -2.370915,-0.0568 -0.60373,-0.0231 -1.05748,-0.0674 -1.07797,-0.0718 -1.7738,-0.37361 -4.584035,-1.56922 -5.724715,-2.40657 -1.447879,-1.06286 -3.467835,-3.12617 -8.861475,-9.11107 -4.36736,-4.84612 -5.481941,-6.41795 -6.359301,-8.91418 -1.34908,-3.83841 -1.369973,-6.08821 -0.101803,-12.87881 0.52911,-2.83314 1.136045,-6.37798 1.351855,-7.91424 0.20799,-1.48069 0.640147,-3.27833 0.845427,-3.74241 0.78798,-1.78135 2.227178,-3.87488 3.802868,-5.66012 1.57569,-1.78524 3.311271,-3.26717 4.572331,-3.85506 0.89722,-0.41827 4.156384,-2.02331 7.286894,-3.58634 4.24818,-2.12108 6.445085,-3.19902 8.125085,-3.73621 1.68,-0.53718 2.877857,-0.5623 5.279263,-0.56844 z m 5.75572,8.20312 c -0.65061,0 -1.17007,0.20236 -1.70274,0.4687 l -0.99632,0.49816 7.41195,43.16584 2.46703,0.21498 0.12868,-0.0114 c 0.9409,-0.0784 1.74996,-0.7251 2.20348,-1.44539 0.43519,-0.69119 0.66973,-1.5055 0.66973,-2.32234 0,-0.26286 -0.0326,-0.52522 -0.0956,-0.77721 l 0.0217,0.10748 -6.5102,-37.5176 0.0119,0.0858 c -0.0918,-0.80812 -0.67725,-1.62955 -1.37511,-2.00401 -0.69785,-0.37446 -1.42845,-0.46302 -2.23449,-0.46302 z m -1.55649,17.15657 c -0.53474,0 -0.53083,0.0784 -0.68162,0.12868 l -0.0956,0.0331 -19.795169,9.71517 -0.0155,0.0103 c -1.186259,0.61891 -1.996261,1.95479 -1.996261,3.29283 0,0.91772 0.289689,1.96566 1.156519,2.57245 l 0.03927,0.0274 16.308565,9.93169 0.161748,0.0527 c 0.15082,0.0503 0.147174,0.12868 0.681608,0.12868 0.885,0 1.12058,-0.41545 1.30897,-0.62477 0.1884,-0.20933 0.30958,-0.39955 0.44131,-0.61909 0.24832,-0.41387 0.47037,-0.85873 0.66766,-1.33222 0.20639,-0.49534 0.37311,-0.88454 0.37311,-1.50791 0,-0.18861 -3.1e-4,-0.40513 -0.13281,-0.73639 -0.10222,-0.25555 -0.38031,-0.61439 -0.75345,-0.82889 l 0.0682,0.0279 -11.840104,-7.2595 15.707054,-7.73596 v -0.51057 c 0.0491,-0.12743 0.12304,-0.26786 0.14831,-0.36897 0.0944,-0.37769 0.10955,-0.70829 0.10955,-1.08779 0,-0.65289 -0.0213,-1.16 -0.11937,-1.65002 -0.049,-0.24501 -0.10008,-0.48893 -0.29662,-0.81649 -0.19654,-0.32757 -0.76011,-0.84233 -1.44539,-0.84233 z" /></g></g></g></g></svg>
